<?xml version="1.0" encoding="UTF-8" standalone="no"?>
<!-- Created with Inkscape (http://www.inkscape.org/) -->

<svg
   xmlns:dc="http://purl.org/dc/elements/1.1/"
   xmlns:cc="http://creativecommons.org/ns#"
   xmlns:rdf="http://www.w3.org/1999/02/22-rdf-syntax-ns#"
   xmlns:svg="http://www.w3.org/2000/svg"
   xmlns="http://www.w3.org/2000/svg"
   xmlns:sodipodi="http://sodipodi.sourceforge.net/DTD/sodipodi-0.dtd"
   xmlns:inkscape="http://www.inkscape.org/namespaces/inkscape"
   id="svg2"
   version="1.1"
   inkscape:version="0.48.3.1 r9886"
   width="512"
   height="512"
   xml:space="preserve"
   sodipodi:docname="eadventure-white.svg"
   inkscape:export-filename="/home/eva/repositories/ead/assets/images/eadventure-logo-white.png"
   inkscape:export-xdpi="90"
   inkscape:export-ydpi="90"><metadata
     id="metadata8"><rdf:RDF><cc:Work
         rdf:about=""><dc:format>image/svg+xml</dc:format><dc:type
           rdf:resource="http://purl.org/dc/dcmitype/StillImage" /><dc:title></dc:title></cc:Work></rdf:RDF></metadata><defs
     id="defs6"><clipPath
       clipPathUnits="userSpaceOnUse"
       id="clipPath16"><path
         d="m 0,595.28 841.89,0 L 841.89,0 0,0 0,595.28 z"
         id="path18"
         inkscape:connector-curvature="0" /></clipPath><clipPath
       clipPathUnits="userSpaceOnUse"
       id="clipPath28"><path
         d="m 89.535,384.321 c -10.509,-1.405 -18.432,-5.52 -23.753,-12.343 l 0,0 c -5.314,-6.821 -7.737,-16.033 -7.205,-27.626 l 0,0 68.016,9.1 c -0.704,5.236 -1.962,9.938 -3.79,14.114 l 0,0 c -1.819,4.181 -4.255,7.626 -7.294,10.358 l 0,0 c -3.046,2.725 -6.707,4.663 -10.983,5.822 l 0,0 c -2.568,0.689 -5.393,1.031 -8.474,1.031 l 0,0 c -2.058,0 -4.231,-0.152 -6.517,-0.456"
         id="path30"
         inkscape:connector-curvature="0" /></clipPath><linearGradient
       x1="0"
       y1="0"
       x2="1"
       y2="0"
       gradientUnits="userSpaceOnUse"
       gradientTransform="matrix(0,40.425781,40.425781,0,92.549316,344.35156)"
       spreadMethod="pad"
       id="linearGradient36"><stop
         style="stop-opacity:1;stop-color:#f47c17"
         offset="0"
         id="stop38" /><stop
         style="stop-opacity:1;stop-color:#f47c17"
         offset="1"
         id="stop40" /></linearGradient><clipPath
       clipPathUnits="userSpaceOnUse"
       id="clipPath48"><path
         d="m 8.079,329.772 0,-101.446 46.614,0 0,49.854 c 8.974,-7.565 25.789,-13.426 41.043,-13.324 l 0,0 c 17.597,0.117 29.978,2.649 40.512,5.996 l 0,0 0,3.553 c -10.915,-3.79 -27.245,-6.301 -40.449,-6.369 l 0,0 C 78.5,267.948 63,275.782 54.693,282.207 l 0,0 c -3.305,2.557 -9.19,9.244 -12.668,15.26 l 0,0 c -4.401,7.63 -7.29,16.64 -8.681,27.023 l 0,0 c -1.395,10.467 -1.126,20.016 0.811,28.655 l 0,0 c 1.938,8.627 5.288,16.196 10.051,22.672 l 0,0 c 4.767,6.461 10.795,11.71 18.095,15.746 l 0,0 c 7.291,4.029 15.589,6.668 24.896,7.913 l 0,0 c 9.129,1.229 17.517,0.951 25.157,-0.812 l 0,0 c 7.644,-1.752 14.342,-4.769 20.076,-9.049 l 0,0 c 5.732,-4.288 10.415,-9.73 14.074,-16.334 l 0,0 c 3.637,-6.607 6.05,-14.119 7.172,-22.592 l 0,0 1.744,-13.032 -95.661,-12.805 c 2.436,-14.778 7.669,-25.213 15.642,-31.263 l 0,0 c 7.984,-6.061 18.932,-8.152 32.864,-6.301 l 0,0 c 4.693,0.626 9.024,1.404 12.982,2.332 l 0,0 c 3.95,0.925 7.758,1.988 11.391,3.225 l 0,0 c 1.226,0.404 2.418,0.875 3.61,1.333 l 0,0 0,-19.773 0,-3.553 0,-43.896 0.349,0 0,-1.362 46.948,0 0,101.44 c 0,0 6.857,98.697 -94.589,98.697 l 0,0 c -87.724,0 -80.877,-95.959 -80.877,-95.959"
         id="path50"
         inkscape:connector-curvature="0" /></clipPath><linearGradient
       x1="0"
       y1="0"
       x2="1"
       y2="0"
       gradientUnits="userSpaceOnUse"
       gradientTransform="matrix(-1.53e-5,200.13623,200.13623,1.53e-5,95.79834,225.59375)"
       spreadMethod="pad"
       id="linearGradient56"><stop
         style="stop-opacity:1;stop-color:#f47c17"
         offset="0"
         id="stop58" /><stop
         style="stop-opacity:1;stop-color:#f47c17"
         offset="1"
         id="stop60" /></linearGradient><clipPath
       clipPathUnits="userSpaceOnUse"
       id="clipPath68"><path
         d="m 0,595.28 841.89,0 L 841.89,0 0,0 0,595.28 z"
         id="path70"
         inkscape:connector-curvature="0" /></clipPath><clipPath
       clipPathUnits="userSpaceOnUse"
       id="clipPath104"><path
         d="m 795.437,311.701 c -5.562,-0.906 -10.479,-2.626 -14.734,-5.171 l 0,0 c -4.261,-2.55 -7.716,-5.876 -10.379,-9.981 l 0,0 c -2.668,-4.11 -4.452,-8.987 -5.385,-14.637 l 0,0 c -0.934,-5.656 -0.812,-12.06 0.358,-19.218 l 0,0 c 1.139,-7.076 3.133,-13.057 5.952,-17.981 l 0,0 c 2.832,-4.916 6.301,-8.798 10.405,-11.659 l 0,0 c 4.129,-2.857 8.784,-4.732 13.977,-5.636 l 0,0 c 5.205,-0.904 10.719,-0.882 16.571,0.065 l 0,0 c 3.022,0.491 5.783,1.056 8.27,1.688 l 0,0 c 2.508,0.632 4.818,1.366 6.923,2.224 l 0,0 c 2.121,0.819 4.097,1.766 5.968,2.799 l 0,0 c 1.841,1.018 3.675,2.206 5.452,3.544 l 0,0 -2.8,17.254 c -1.979,-1.419 -3.92,-2.7 -5.829,-3.841 l 0,0 c -1.919,-1.139 -3.884,-2.139 -5.901,-3.017 l 0,0 c -1.992,-0.876 -4.084,-1.629 -6.258,-2.266 l 0,0 c -2.173,-0.627 -4.501,-1.145 -6.989,-1.545 l 0,0 c -2.968,-0.486 -5.682,-0.449 -8.157,0.098 l 0,0 c -2.47,0.556 -4.657,1.561 -6.561,3.027 l 0,0 c -1.913,1.46 -3.529,3.368 -4.839,5.729 l 0,0 c -1.306,2.37 -2.268,5.1 -2.866,8.209 l 0,0 49.837,8.102 -1.758,10.821 c -0.975,5.943 -2.643,11.079 -5.022,15.426 l 0,0 c -2.385,4.334 -5.356,7.83 -8.914,10.512 l 0,0 c -3.562,2.674 -7.652,4.458 -12.282,5.388 l 0,0 c -2.368,0.472 -4.837,0.707 -7.407,0.707 l 0,0 c -2.452,0 -4.996,-0.214 -7.632,-0.641 m -6.436,-21.593 c 2.158,3.195 5.204,5.116 9.143,5.758 l 0,0 c 2.347,0.376 4.466,0.273 6.361,-0.32 l 0,0 c 1.91,-0.58 3.551,-1.56 4.983,-2.904 l 0,0 c 1.404,-1.352 2.586,-3.025 3.498,-5.024 l 0,0 c 0.93,-1.988 1.625,-4.222 2.077,-6.707 l 0,0 -28.432,-4.631 c -0.576,6.004 0.216,10.623 2.37,13.828"
         id="path106"
         inkscape:connector-curvature="0" /></clipPath><linearGradient
       x1="0"
       y1="0"
       x2="1"
       y2="0"
       gradientUnits="userSpaceOnUse"
       gradientTransform="matrix(0,85.585937,85.585937,0,801.56738,226.75586)"
       spreadMethod="pad"
       id="linearGradient112"><stop
         style="stop-opacity:1;stop-color:#f47c17"
         offset="0"
         id="stop114" /><stop
         style="stop-opacity:1;stop-color:#f47c17"
         offset="1"
         id="stop116" /></linearGradient><clipPath
       clipPathUnits="userSpaceOnUse"
       id="clipPath124"><path
         d="m 0,595.28 841.89,0 L 841.89,0 0,0 0,595.28 z"
         id="path126"
         inkscape:connector-curvature="0" /></clipPath></defs><sodipodi:namedview
     pagecolor="#ffffff"
     bordercolor="#666666"
     borderopacity="1"
     objecttolerance="10"
     gridtolerance="10"
     guidetolerance="10"
     inkscape:pageopacity="0"
     inkscape:pageshadow="2"
     inkscape:window-width="1600"
     inkscape:window-height="1176"
     id="namedview4"
     showgrid="false"
     inkscape:zoom="1.0860869"
     inkscape:cx="303.496"
     inkscape:cy="272.4117"
     inkscape:window-x="0"
     inkscape:window-y="24"
     inkscape:window-maximized="1"
     inkscape:current-layer="g10" /><g
     inkscape:groupmode="layer"
     id="layer2"
     inkscape:label="bg"
     style="display:none"
     sodipodi:insensitive="true"
     transform="translate(0,-232.09998)"><rect
       style="color:#000000;fill:#000000;fill-opacity:1;fill-rule:nonzero;stroke:#999999;stroke-width:2;stroke-linecap:round;stroke-linejoin:round;stroke-miterlimit:4;stroke-opacity:1;stroke-dasharray:none;stroke-dashoffset:0;marker:none;visibility:visible;display:inline;overflow:visible;enable-background:accumulate"
       id="rect3954"
       width="590.1922"
       height="464.05127"
       x="-109.56766"
       y="107.87096"
       ry="7.0640664" /></g><g
     id="g10"
     inkscape:groupmode="layer"
     inkscape:label="Logo_eAdventure2.0-Color-Illustrator"
     transform="matrix(1.25,0,0,-1.25,0,512.00002)"><g
       id="g24"
       style="fill:#ffffff"
       transform="matrix(2.0465981,0,0,2.0465981,9.321018,-461.70024)"><g
         id="g26"
         clip-path="url(#clipPath28)"
         style="fill:#ffffff"><g
           id="g32"
           style="fill:#ffffff"><g
             id="g34"
             style="fill:#ffffff"><path
               d="m 89.535,384.321 c -10.509,-1.405 -18.432,-5.52 -23.753,-12.343 l 0,0 c -5.314,-6.821 -7.737,-16.033 -7.205,-27.626 l 0,0 68.016,9.1 c -0.704,5.236 -1.962,9.938 -3.79,14.114 l 0,0 c -1.819,4.181 -4.255,7.626 -7.294,10.358 l 0,0 c -3.046,2.725 -6.707,4.663 -10.983,5.822 l 0,0 c -2.568,0.689 -5.393,1.031 -8.474,1.031 l 0,0 c -2.058,0 -4.231,-0.152 -6.517,-0.456"
               style="fill:#ffffff;stroke:none"
               id="path42"
               inkscape:connector-curvature="0" /></g></g></g></g><g
       clip-path="url(#clipPath48)"
       id="g46"
       style="fill:#ffffff"
       transform="matrix(2.0465981,0,0,2.0465981,7.721018,-461.70024)"><g
         id="g52"
         style="fill:#ffffff"><g
           id="g54"
           style="fill:#ffffff"><path
             inkscape:connector-curvature="0"
             id="path62"
             style="fill:#ffffff;stroke:none"
             d="m 8.079,329.772 0,-101.446 46.614,0 0,49.854 c 8.974,-7.565 25.789,-13.426 41.043,-13.324 l 0,0 c 17.597,0.117 29.978,2.649 40.512,5.996 l 0,0 0,3.553 c -10.915,-3.79 -27.245,-6.301 -40.449,-6.369 l 0,0 C 78.5,267.948 63,275.782 54.693,282.207 l 0,0 c -3.305,2.557 -9.19,9.244 -12.668,15.26 l 0,0 c -4.401,7.63 -7.29,16.64 -8.681,27.023 l 0,0 c -1.395,10.467 -1.126,20.016 0.811,28.655 l 0,0 c 1.938,8.627 5.288,16.196 10.051,22.672 l 0,0 c 4.767,6.461 10.795,11.71 18.095,15.746 l 0,0 c 7.291,4.029 15.589,6.668 24.896,7.913 l 0,0 c 9.129,1.229 17.517,0.951 25.157,-0.812 l 0,0 c 7.644,-1.752 14.342,-4.769 20.076,-9.049 l 0,0 c 5.732,-4.288 10.415,-9.73 14.074,-16.334 l 0,0 c 3.637,-6.607 6.05,-14.119 7.172,-22.592 l 0,0 1.744,-13.032 -95.661,-12.805 c 2.436,-14.778 7.669,-25.213 15.642,-31.263 l 0,0 c 7.984,-6.061 18.932,-8.152 32.864,-6.301 l 0,0 c 4.693,0.626 9.024,1.404 12.982,2.332 l 0,0 c 3.95,0.925 7.758,1.988 11.391,3.225 l 0,0 c 1.226,0.404 2.418,0.875 3.61,1.333 l 0,0 0,-19.773 0,-3.553 0,-43.896 0.349,0 0,-1.362 46.948,0 0,101.44 c 0,0 6.857,98.697 -94.589,98.697 l 0,0 c -87.724,0 -80.877,-95.959 -80.877,-95.959" /></g></g></g></g></svg>