<?xml version="1.0" encoding="UTF-8" standalone="no"?>
<svg
   xmlns:dc="http://purl.org/dc/elements/1.1/"
   xmlns:cc="http://creativecommons.org/ns#"
   xmlns:rdf="http://www.w3.org/1999/02/22-rdf-syntax-ns#"
   xmlns:svg="http://www.w3.org/2000/svg"
   xmlns="http://www.w3.org/2000/svg"
   xmlns:sodipodi="http://sodipodi.sourceforge.net/DTD/sodipodi-0.dtd"
   xmlns:inkscape="http://www.inkscape.org/namespaces/inkscape"
   width="24"
   height="24"
   viewBox="0 0 24 24"
   id="svg2"
   version="1.1"
   inkscape:version="0.48.4 r9939"
   sodipodi:docname="ic_my_library_music_24px.svg">
  <metadata
     id="metadata10">
    <rdf:RDF>
      <cc:Work
         rdf:about="">
        <dc:format>image/svg+xml</dc:format>
        <dc:type
           rdf:resource="http://purl.org/dc/dcmitype/StillImage" />
        <dc:title></dc:title>
      </cc:Work>
    </rdf:RDF>
  </metadata>
  <defs
     id="defs8" />
  <sodipodi:namedview
     pagecolor="#ffffff"
     bordercolor="#666666"
     borderopacity="1"
     objecttolerance="10"
     gridtolerance="10"
     guidetolerance="10"
     inkscape:pageopacity="0"
     inkscape:pageshadow="2"
     inkscape:window-width="1920"
     inkscape:window-height="1053"
     id="namedview6"
     showgrid="false"
     inkscape:zoom="55.625733"
     inkscape:cx="14.199232"
     inkscape:cy="7.4335579"
     inkscape:window-x="0"
     inkscape:window-y="0"
     inkscape:window-maximized="1"
     inkscape:current-layer="svg2" />
  <path
     d="M 8 2 C 6.9 2 6 2.9 6 4 L 6 16 C 6 17.1 6.9 18 8 18 L 12.03125 18 C 12.042612 16.875911 12.387135 15.831415 12.9375 14.9375 C 12.793612 14.963282 12.651269 15 12.5 15 C 11.12 15 10 13.88 10 12.5 C 10 11.12 11.12 10 12.5 10 C 13.07 10 13.58 10.18 14 10.5 L 14 5 L 18 5 L 18 7 L 15 7 L 15 12.5 C 15 12.651269 14.963282 12.793612 14.9375 12.9375 C 15.839839 12.390817 16.899199 12.09375 18.03125 12.09375 C 19.567125 12.09375 20.941261 12.673036 22 13.625 L 22 4 C 22 2.9 21.1 2 20 2 L 8 2 z M 2 6 L 2 20 C 2 21.1 2.9 22 4 22 L 13.53125 22 C 13.023773 21.42195 12.630396 20.742977 12.375 20 L 4 20 L 4 6 L 2 6 z "
     id="path4"
     style="fill:#ffffff" />
  <path
     style="fill:#ffffff;fill-opacity:1;stroke:none"
     d="m 18.049201,12.031539 c -3.313708,0 -6,2.686291 -6,6 0,3.313708 2.686292,6 6,6 3.313708,0 6,-2.686292 6,-6 0,-3.313709 -2.686292,-6 -6,-6 z m 0,1 c 2.761424,0 5,2.238576 5,5 0,2.761424 -2.238576,5 -5,5 -2.761424,0 -5,-2.238576 -5,-5 0,-2.761424 2.238576,-5 5,-5 z"
     id="path3009-1"
     inkscape:connector-curvature="0" />
  <g
     id="g3029"
     transform="translate(21.049201,3.0315394)"
     style="fill:#ffffff">
    <rect
       y="12"
       x="-4"
       height="6"
       width="2"
       id="rect2989"
       style="fill:#ffffff;fill-opacity:1;stroke:none" />
    <rect
       transform="matrix(0,1,-1,0,0,0)"
       y="8.5722445e-16"
       x="14"
       height="6"
       width="2"
       id="rect2989-6"
       style="fill:#ffffff;fill-opacity:1;stroke:none" />
  </g>
</svg>
