<?xml version="1.0" encoding="UTF-8" standalone="no"?>
<!-- Created with Inkscape (http://www.inkscape.org/) -->

<svg
   xmlns:dc="http://purl.org/dc/elements/1.1/"
   xmlns:cc="http://creativecommons.org/ns#"
   xmlns:rdf="http://www.w3.org/1999/02/22-rdf-syntax-ns#"
   xmlns:svg="http://www.w3.org/2000/svg"
   xmlns="http://www.w3.org/2000/svg"
   xmlns:sodipodi="http://sodipodi.sourceforge.net/DTD/sodipodi-0.dtd"
   xmlns:inkscape="http://www.inkscape.org/namespaces/inkscape"
   width="24"
   height="24"
   id="svg2"
   version="1.1"
   inkscape:version="0.48.4 r9939"
   sodipodi:docname="ic_delete_branch.svg">
  <defs
     id="defs4" />
  <sodipodi:namedview
     id="base"
     pagecolor="#ffffff"
     bordercolor="#666666"
     borderopacity="1.0"
     inkscape:pageopacity="0.0"
     inkscape:pageshadow="2"
     inkscape:zoom="22.627417"
     inkscape:cx="5.3963318"
     inkscape:cy="10.010739"
     inkscape:document-units="px"
     inkscape:current-layer="layer1"
     showgrid="true"
     inkscape:window-width="1867"
     inkscape:window-height="1056"
     inkscape:window-x="53"
     inkscape:window-y="24"
     inkscape:window-maximized="1"
     inkscape:snap-grids="false">
    <inkscape:grid
       type="xygrid"
       id="grid2987"
       empspacing="5"
       visible="true"
       enabled="true"
       snapvisiblegridlinesonly="true" />
  </sodipodi:namedview>
  <metadata
     id="metadata7">
    <rdf:RDF>
      <cc:Work
         rdf:about="">
        <dc:format>image/svg+xml</dc:format>
        <dc:type
           rdf:resource="http://purl.org/dc/dcmitype/StillImage" />
        <dc:title></dc:title>
      </cc:Work>
    </rdf:RDF>
  </metadata>
  <g
     inkscape:label="Capa 1"
     inkscape:groupmode="layer"
     id="layer1"
     transform="translate(0,-1028.3622)">
    <path
       sodipodi:type="arc"
       style="fill:#ffffff;fill-opacity:1;stroke:none"
       id="path4367-1-6"
       sodipodi:cx="8"
       sodipodi:cy="17"
       sodipodi:rx="2"
       sodipodi:ry="2"
       d="m 10,17 a 2,2 0 1 1 -4,0 2,2 0 1 1 4,0 z"
       transform="translate(4,1030.3622)" />
    <path
       sodipodi:type="arc"
       style="fill:#ffffff;fill-opacity:1;stroke:none"
       id="path4367-1-64"
       sodipodi:cx="8"
       sodipodi:cy="17"
       sodipodi:rx="2"
       sodipodi:ry="2"
       d="m 10,17 a 2,2 0 1 1 -4,0 2,2 0 1 1 4,0 z"
       transform="translate(10,1027.3622)" />
    <path
       sodipodi:type="arc"
       style="fill:#ffffff;fill-opacity:1;stroke:none"
       id="path4367-1-8"
       sodipodi:cx="8"
       sodipodi:cy="17"
       sodipodi:rx="2"
       sodipodi:ry="2"
       d="m 10,17 a 2,2 0 1 1 -4,0 2,2 0 1 1 4,0 z"
       transform="translate(4,1024.3622)" />
    <path
       sodipodi:type="arc"
       style="fill:#ffffff;fill-opacity:1;stroke:none"
       id="path4367-1-3"
       sodipodi:cx="8"
       sodipodi:cy="17"
       sodipodi:rx="2"
       sodipodi:ry="2"
       d="m 10,17 a 2,2 0 1 1 -4,0 2,2 0 1 1 4,0 z"
       transform="translate(-2,1027.3622)" />
    <path
       sodipodi:type="arc"
       style="fill:#ffffff;fill-opacity:1;stroke:none"
       id="path4367-1-3-7"
       sodipodi:cx="8"
       sodipodi:cy="17"
       sodipodi:rx="2"
       sodipodi:ry="2"
       d="m 10,17 a 2,2 0 1 1 -4,0 2,2 0 1 1 4,0 z"
       transform="translate(4,1015.3622)" />
    <path
       style="fill:#ffffff;stroke:#ffffff;stroke-width:1px;stroke-linecap:butt;stroke-linejoin:miter;stroke-opacity:1"
       d="m 12,13 0,6"
       id="path4570"
       inkscape:connector-curvature="0"
       transform="translate(0,1028.3622)" />
    <path
       style="fill:#ffffff;stroke:#ffffff;stroke-width:1px;stroke-linecap:butt;stroke-linejoin:miter;stroke-opacity:1"
       d="m 6,16 6,-3.464102"
       id="path4572"
       inkscape:connector-curvature="0"
       transform="translate(0,1028.3622)" />
    <path
       style="fill:#ffffff;stroke:#ffffff;stroke-width:1px;stroke-linecap:butt;stroke-linejoin:miter;stroke-opacity:1"
       d="M 18,16 12,12.535898"
       id="path4574"
       inkscape:connector-curvature="0"
       transform="translate(0,1028.3622)" />
    <rect
       style="fill:#ffffff;fill-opacity:1;stroke:none"
       id="rect4592"
       width="1.1924577"
       height="12.555705"
       x="903.41907"
       y="501.95557"
       transform="matrix(0.5,0.8660254,-0.8660254,0.5,0,0)" />
    <path
       style="fill:#ffffff;stroke:none"
       d="m 11.5,1039.3622 0,-1 1.055243,-0.6906 -0.05524,2.6906 -1,0 z"
       id="path4612"
       inkscape:connector-curvature="0"
       sodipodi:nodetypes="cccccc" />
    <path
       style="fill:#ffffff;stroke:none"
       d="m 12.5,1033.4716 0,2.1546 -1,0.6243 0,-3.7789 1,0 z"
       id="path4612-9"
       inkscape:connector-curvature="0"
       sodipodi:nodetypes="cccccc" />
  </g>
</svg>
