<?xml version="1.0" encoding="UTF-8"?><!DOCTYPE svg PUBLIC "-//W3C//DTD SVG 1.1//EN" "http://www.w3.org/Graphics/SVG/1.1/DTD/svg11.dtd"><svg xmlns="http://www.w3.org/2000/svg" xmlns:xlink="http://www.w3.org/1999/xlink" version="1.1" width="24" height="24" viewBox="0 0 24.00 24.00"><path fill="#ffffff" d="M12,2C12.43,2 12.84,2.14 13.17,2.37C15.78,4.25 18.39,6.12 19.11,8.31C19.83,10.5 19,13 17.5,15.5C20,9 13,7.5 13,7.5V18C13,20.21 11,22 8.5,22C6,22 4,20.21 4,18C4,15.79 6,14 8.5,14C9.03,14 9.53,14.08 10,14.23V4A2,2 0 0,1 12,2Z" /></svg>